<?xml version="1.0" encoding="UTF-8"?>
<svg width="108px" height="108px" viewBox="0 0 108 108" version="1.1" xmlns="http://www.w3.org/2000/svg" xmlns:xlink="http://www.w3.org/1999/xlink">
    <title>molecule/services/image/delivery</title>
    <g id="molecule/services/image/delivery" stroke="none" stroke-width="1" fill="none" fill-rule="evenodd">
        <rect id="Rectangle" fill="#F79C40" x="13.7377193" y="68.0451009" width="14.604083" height="2.68012491"></rect>
        <rect id="Rectangle-Copy" fill="#F68B1E" x="3.58235451" y="74.4170375" width="24.7594478" height="2.68012491"></rect>
        <rect id="Rectangle-Copy-2" fill="#F79C40" x="10.5011955" y="80.636755" width="17.8406069" height="2.68012491"></rect>
        <g id="Icons/Motorbike" transform="translate(32.000000, 15.500000)">
            <g id="molecule/services/image/mall-copy-2" transform="translate(0.000000, 8.516941)">
                <g id="scooter">
                    <path d="M65.2846693,39.224015 L60.2652632,43.0889228 L46.9387922,53.3058839 L31.095099,53.3058839 L24.4318635,48.8637269 L31.095099,39.9794129 L33.4642493,39.9794129 C42.0373811,39.9794129 49.1598707,33.0049952 49.1598707,24.4318635 C49.1598707,18.3019181 54.1353178,13.326471 60.2652632,13.326471 L61.8200182,13.9927945 C68.4832536,20.65603 69.9043968,31.0060245 65.2846693,39.224015 Z" id="Path" fill="#CDE3E6"></path>
                    <path d="M65.2846693,39.224015 L60.2652632,43.0889228 L60.2652632,13.326471 L61.8200182,13.9927945 C68.4832536,20.65603 69.9043968,31.0060245 65.2846693,39.224015 Z" id="Path" fill="#BEDBDE"></path>
                    <path d="M71.3706557,51.0848054 C71.3706557,57.2147508 66.3952086,62.1901979 60.2652632,62.1901979 C54.1353178,62.1901979 49.1598707,57.2147508 49.1598707,51.0848054 C49.1598707,44.9548601 54.1353178,39.9794129 60.2652632,39.9794129 C66.3952086,39.9794129 71.3706557,44.9548601 71.3706557,51.0848054 Z" id="Path" fill="#555555"></path>
                    <path d="M71.3706557,51.0848054 C71.3706557,57.2147508 66.3952086,62.1901979 60.2652632,62.1901979 L60.2652632,39.9794129 C66.3952086,39.9794129 71.3706557,44.9548601 71.3706557,51.0848054 Z" id="Path" fill="#3F3F3F"></path>
                    <polygon id="Path" fill="#555555" points="40.2755567 8.88431399 51.3809492 8.88431399 51.3809492 13.326471 40.2755567 13.326471"></polygon>
                    <polygon id="Path" fill="#F79C40" points="26.1082209 -8.79931049e-14 26.1082209 17.768628 17.2239069 22.210785 15.0028284 21.455387 3.8974359 17.768628 3.8974359 -8.79931049e-14 15.0028284 -8.79931049e-14 17.2239069 -8.79931049e-14"></polygon>
                    <polygon id="Path" fill="#F68B1E" points="26.1082209 -8.79931049e-14 26.1082209 17.768628 17.2239069 22.210785 15.0028284 21.455387 15.0028284 -8.79931049e-14"></polygon>
                    <path d="M26.652942,51.0848054 C26.652942,57.2182211 21.6809652,62.1901979 15.5475495,62.1901979 C9.41413375,62.1901979 4.44215699,57.2182211 4.44215699,51.0848054 C4.44215699,44.9513897 9.41413375,39.9794129 15.5475495,39.9794129 C21.6809652,39.9794129 26.652942,44.9513897 26.652942,51.0848054 Z" id="Path" fill="#555555"></path>
                    <path d="M55.8231062,4.44215699 C52.1357688,4.44215699 49.1598707,7.4180551 49.1598707,11.1053925 C49.1598707,14.7921515 52.1357688,17.768628 55.8231062,17.768628 L63.0310628,17.768628 L63.0310628,4.44215699 L55.8231062,4.44215699 Z" id="Path" fill="#BEDBDE"></path>
                    <path d="M31.095099,53.3058839 L0,53.3058839 L0,37.7583344 C0,29.1718995 6.96111454,22.210785 15.5475495,22.210785 C24.1339844,22.210785 31.095099,29.1718995 31.095099,37.7583344 L31.095099,53.3058839 Z" id="Path" fill="#BEDBDE"></path>
                    <path d="M26.652942,26.652942 L6.66323549,26.652942 C2.98341749,26.652942 0,23.6695245 0,19.9897065 L0,17.768628 L26.652942,17.768628 C29.1065395,17.768628 31.095099,19.7571874 31.095099,22.210785 C31.095099,24.6643825 29.1065395,26.652942 26.652942,26.652942 Z" id="Path" fill="#3F3F3F"></path>
                    <path d="M60.2652632,35.5372559 C51.6921315,35.5372559 44.7177137,42.5116737 44.7177137,51.0848054 L44.7177137,53.3058839 L75.8128127,53.3058839 L75.8128127,51.0848054 C75.8128127,42.5116737 68.8383949,35.5372559 60.2652632,35.5372559 Z" id="Path" fill="#CDE3E6"></path>
                    <path d="M75.8128127,51.0848054 L75.8128127,53.3058839 L60.2652632,53.3058839 L60.2652632,35.5372559 C68.8383949,35.5372559 75.8128127,42.5116737 75.8128127,51.0848054 Z" id="Path" fill="#BEDBDE"></path>
                </g>
            </g>
            <g id="Group-2" transform="translate(7.405128, 40.865659)">
                <g id="Group" transform="translate(0.193026, 0.190288)">
                    <path d="M7.37943204,14.7588641 C3.31070839,14.7588641 1.928616e-14,11.4484509 1.928616e-14,7.37943204 C1.928616e-14,3.31070839 3.31070839,0 7.37943204,0 C11.4484509,0 14.7588641,3.31070839 14.7588641,7.37943204 C14.7588641,11.4484509 11.4484509,14.7588641 7.37943204,14.7588641 Z" id="Path" fill="#FFFFFF" fill-rule="nonzero"></path>
                    <path d="M13.6952252,3.56440305 C13.5749348,3.3621884 13.4443343,3.16628766 13.3039402,2.97747551 C13.0892612,2.69497162 12.8569245,2.42633238 12.6083224,2.1731674 L12.3474657,1.91231072 L11.8040143,1.47754958 L11.2170867,1.0645265 L10.8910159,0.890622045 C8.70096591,-0.296035304 6.05967348,-0.296035304 3.8696235,0.890622045 L3.54355265,1.0645265 L2.95662511,1.47754958 C2.76611448,1.61036599 2.58457008,1.75560151 2.41317369,1.91231072 L2.15231701,2.1731674 C1.90371485,2.42633238 1.67137821,2.69497162 1.45669918,2.97747551 C0.814372533,3.8415071 0.369171501,4.83578941 0.152415769,5.89037514 C0.0469886735,6.38328043 -0.0040387716,6.88626524 0.000249370464,7.39030107 C-0.000677233879,8.12715397 0.10924284,8.85995446 0.326320224,9.56410676 C0.434081402,9.90585483 0.564807389,10.2399324 0.717605249,10.5640574 C0.820482662,10.7811366 0.936639084,10.9916701 1.06541416,11.194461 L1.26105667,11.4987938 C1.38634121,11.6959392 1.52430634,11.8847336 1.67407975,12.0639833 C1.97969441,12.4238967 2.31411697,12.7583193 2.67403037,13.0639339 C2.86042194,13.2209434 3.05644676,13.366147 3.26095791,13.4986951 L3.8696235,13.868242 C6.05967348,15.0548994 8.70096591,15.0548994 10.8910159,13.868242 L11.2170867,13.6943376 C11.5214195,13.4986951 11.8040143,13.2813145 12.086609,13.0639339 L12.6083224,12.5856967 L13.0865596,12.0639833 C13.2363331,11.8847336 13.3742982,11.6959392 13.4995827,11.4987938 L13.6952252,11.194461 C15.1134104,8.84099734 15.1134104,5.89612867 13.6952252,3.54266499 L13.6952252,3.56440305 Z M12.825703,5.56430428 L10.1084458,8.23808529 L10.6518973,11.9770311 L7.36945067,10.2162485 L4.13048019,11.9770311 L4.76088384,8.23808529 L1.95667449,5.56430428 L1.95667449,5.56430428 L5.71735834,5.02085286 L7.39118872,1.60797792 L9.08675716,5.02085286 L12.825703,5.56430428 Z" id="Shape" fill="#F68B1E"></path>
                </g>
            </g>
            <g id="warning" transform="translate(64.662637, 19.661251) rotate(-270.000000) translate(-64.662637, -19.661251) translate(57.876923, 15.080893)">
                <path d="M6.75418306,0.0228502608 C3.07388307,0.0228502608 0.0892889941,3.0074443 0.0892889941,6.68760353 L0.0892889941,8.90579958 L6.75418306,8.90579958 L6.75418306,0.0228502608 Z" id="Path" fill="#FFC426"></path>
                <path d="M13.4189363,6.68760353 C13.4189363,3.0074443 10.4343423,0.0228502608 6.75418306,0.0228502608 L6.75418306,1.68812337 C9.51518247,1.69178422 11.7500023,3.92660409 11.7536632,6.68760353 C11.7500023,3.92660409 9.51518247,1.69178422 6.75418306,1.68812337 L6.75418306,8.90579958 L13.4189363,8.90579958 L13.4189363,6.68760353 Z" id="Path" fill="#FFD051"></path>
            </g>
        </g>
    </g>
</svg>