<?xml version="1.0" encoding="UTF-8"?>
<svg width="108px" height="108px" viewBox="0 0 108 108" version="1.1" xmlns="http://www.w3.org/2000/svg" xmlns:xlink="http://www.w3.org/1999/xlink">
    <title>molecule/services/image/location</title>
    <g id="molecule/services/image/location" stroke="none" stroke-width="1" fill="none" fill-rule="evenodd">
        <g id="Icons/Location" transform="translate(13.000000, 13.000000)">
            <g id="map" transform="translate(0.366071, 0.366071)">
                <polygon id="Path" fill="#CDE3E6" points="54.1472291 25.2950825 54.1470704 25.2950825 50.97184 50.7277013 54.1470704 81.2194952 54.1472291 81.2194952 81.2209229 76.16032 81.2209229 20.2357488"></polygon>
                <polygon id="Path" fill="#BEDBDE" points="54.1470704 25.2950825 40.6104614 20.2357488 37.435231 50.7275427 40.6104614 76.1601614 54.1470704 81.2194952"></polygon>
                <polygon id="Path" fill="#CDE3E6" points="27.0736938 15.176415 27.0735352 15.1765736 23.8983048 45.6685261 27.0735352 71.1009863 27.0736938 71.1009863 40.6104614 76.1601614 40.6104614 20.2357488"></polygon>
                <polygon id="Path" fill="#BEDBDE" points="0 20.2357488 0 76.16032 27.0735352 71.1009863 27.0735352 15.1765736"></polygon>
                <g id="Group" transform="translate(20.781135, 0.000000)">
                    <path d="M33.8461228,5.80745462 L33.8461228,5.80745462 C29.9754382,1.93677001 24.9024619,0.00142771154 19.8293269,0.00142771154 L16.6540964,20.150562 L19.8293269,47.8576838 L33.8461228,33.8408879 C41.5873334,26.0996773 41.5873334,13.5486652 33.8461228,5.80745462 Z" id="Path" fill="#FF2828" fill-rule="nonzero"></path>
                    <path d="M19.8293269,47.8576838 L5.81253093,33.8408879 C-1.92867965,26.0996773 -1.92867965,13.5486652 5.81253093,5.80729599 L5.81253093,5.80729599 C13.5537415,-1.93391459 26.1047536,-1.93391459 33.8461228,5.80729599 L33.8461228,5.80729599 C41.5873334,13.5485066 41.5873334,26.0995187 33.8461228,33.8408879 L19.8293269,47.8576838 Z" id="Path" fill="#F68B1E"></path>
                </g>
                <path d="M26.5936655,5.80729599 L26.5936655,5.80729599 C18.8524549,13.5485066 18.8524549,26.0996773 26.5936655,33.8408879 L40.6104614,47.8576838 L40.6104614,0.00142771154 C35.5373265,0.00142771154 30.4643501,1.93677001 26.5936655,5.80729599 Z" id="Path" fill="#F79C40"></path>
                <path d="M40.6104614,10.1118463 L37.435231,19.8240919 L40.6104614,29.5364962 C45.9658074,29.5364962 50.3227071,25.1795965 50.3227071,19.8242506 C50.3227071,14.468746 45.9658074,10.1118463 40.6104614,10.1118463 Z" id="Path" fill="#FFC426"></path>
                <path d="M30.8982158,19.8240919 C30.8982158,25.1794379 35.2551155,29.5363376 40.6104614,29.5363376 L40.6104614,10.1118463 C35.2551155,10.1118463 30.8982158,14.468746 30.8982158,19.8240919 Z" id="Path" fill="#FFD051"></path>
                <path d="M36.6943478,53.7693867 C36.6943478,55.9287373 38.4511474,57.6854637 40.610498,57.6854637 L40.610498,49.8532365 C38.4511474,49.8532365 36.6943478,51.610036 36.6943478,53.7693867 Z" id="Path" fill="#555555"></path>
                <path d="M40.610498,49.8532365 L40.610498,57.6854637 C42.7698487,57.6854637 44.5265751,55.9287373 44.5265751,53.7693867 C44.5265751,51.610036 42.7698487,49.8532365 40.610498,49.8532365 Z" id="Path" fill="#3F3F3F"></path>
            </g>
        </g>
    </g>
</svg>