<?xml version="1.0" encoding="UTF-8"?>
<svg width="108px" height="108px" viewBox="0 0 108 108" version="1.1" xmlns="http://www.w3.org/2000/svg" xmlns:xlink="http://www.w3.org/1999/xlink">
    <title>molecule/services/image/online shop</title>
    <g id="molecule/services/image/online-shop" stroke="none" stroke-width="1" fill="none" fill-rule="evenodd">
        <g id="responsive" transform="translate(4.500000, 13.500000)">
            <path d="M84.8209017,57.5018933 L14.5254279,57.5018933 C11.4606922,57.5018933 8.97568913,55.0168902 8.97568913,51.9521546 L8.97568913,6.07540941 C8.97568913,3.01067372 11.4606922,0.525670686 14.5254279,0.525670686 L84.8209017,0.525670686 C87.8856374,0.525670686 90.3706404,3.01067372 90.3706404,6.07540941 L90.3706404,51.9521546 C90.3706404,55.0174986 87.8856374,57.5018933 84.8209017,57.5018933 Z" id="Path" fill="#555555"></path>
            <path d="M84.8209017,0.525974848 L49.3966816,0.525974848 L49.3966816,57.5025016 L84.8209017,57.5025016 C87.8856374,57.5025016 90.3706404,55.0174986 90.3706404,51.9527629 L90.3706404,6.07571357 C90.3706404,3.01036956 87.8856374,0.525974848 84.8209017,0.525974848 Z" id="Path" fill="#3F3F3F"></path>
            <path d="M5.3582912,49.3625198 C2.86081753,49.3625198 0.836315665,50.3747329 0.836315665,51.6234231 L0.836315665,55.24099 C0.836315665,56.4896802 2.86081753,57.5018933 5.3582912,57.5018933 L49.3966816,57.5018933 L49.3966816,49.362824 L5.3582912,49.362824 L5.3582912,49.3625198 Z" id="Path" fill="#555555"></path>
            <path d="M93.9880384,49.3625198 L49.3960733,49.3625198 L49.3960733,57.5015891 L93.9880384,57.5015891 C96.4855121,57.5015891 98.5100139,56.489376 98.5100139,55.2406858 L98.5100139,51.6231189 C98.5100139,50.3747329 96.4855121,49.3625198 93.9880384,49.3625198 Z" id="Path" fill="#3F3F3F"></path>
            <rect id="Rectangle" fill="#808183" fill-rule="nonzero" x="41.5343996" y="49.3619115" width="16.2808761" height="4.43954765"></rect>
            <rect id="Rectangle" fill="#CDE3E6" x="13.0465925" y="5.83086321" width="73.2564903" height="40.694434"></rect>
            <rect id="Rectangle" fill="#BEDBDE" x="49.3945525" y="5.83086321" width="36.9033596" height="40.694434"></rect>
            <path d="M26.5284731,70.3594267 L9.01634951,70.3594267 C6.6326324,70.3594267 4.69998744,68.4267818 4.69998744,66.0430647 L4.70089993,30.493834 C4.70089993,28.1101169 6.63354488,26.1780802 9.01726199,26.1780802 L26.5293856,26.1780802 C28.9131027,26.1780802 30.8457476,28.1107252 30.8457476,30.4944423 L30.8448352,66.043673 C30.8442268,68.4270859 28.9121902,70.3594267 26.5284731,70.3594267 Z" id="Path" fill="#555555"></path>
            <path d="M26.5290814,26.1780802 L17.7007812,26.1780802 L17.7007812,70.3594267 L26.5287773,70.3594267 C28.9124944,70.3594267 30.8451393,68.4270859 30.8451393,66.043673 L30.8460518,30.4944423 C30.8454435,28.1107252 28.9131027,26.1780802 26.5290814,26.1780802 Z" id="Path" fill="#3F3F3F"></path>
            <rect id="Rectangle" fill="#CDE3E6" x="7.17860307" y="30.0439785" width="21.1940039" height="33.1125894"></rect>
            <rect id="Rectangle" fill="#BEDBDE" x="17.7019978" y="30.0439785" width="10.6687841" height="33.1125894"></rect>
            <g id="shopping-cart" transform="translate(38.069898, 35.249906)">
                <path d="M8.13933197,26.5042074 L20.0052117,26.5042074 L20.0052117,5.48599377 L0.00521169408,5.48599377 L2.79948293,22.0984058 C3.21648214,24.5689317 5.56203211,26.5042074 8.13933197,26.5042074 Z" id="Path" fill="#F79C40"></path>
                <polygon id="Path" fill="#F68B1E" points="33.8746218 26.5042074 37.4320689 5.48599377 19.4320689 5.48599377 19.4320689 26.5042074"></polygon>
                <path d="M3.16203538,39.628076 C3.16203538,42.3270935 5.35789582,44.5228625 8.05691332,44.5228625 L8.05691332,34.7331981 C5.35789582,34.7331981 3.16203538,36.9290585 3.16203538,39.628076 Z" id="Path" fill="#FFD051"></path>
                <path d="M26.8004511,39.628076 C26.8004511,42.3270935 28.9962201,44.5228625 31.6952376,44.5228625 L31.6952376,34.7331981 C28.9962201,34.7331981 26.8004511,36.9290585 26.8004511,39.628076 Z" id="Path" fill="#FFD051"></path>
                <path d="M8.05691332,34.7331981 L8.05691332,44.5228625 C10.7559308,44.5228625 12.9516998,42.3270935 12.9516998,39.628076 C12.9516998,36.9290585 10.7559308,34.7331981 8.05691332,34.7331981 Z" id="Path" fill="#FFC426"></path>
                <path d="M31.6952376,34.7331981 L31.6952376,44.5228625 C34.3942551,44.5228625 36.5901155,42.3270935 36.5901155,39.628076 C36.5901155,36.9290585 34.3942551,34.7331981 31.6952376,34.7331981 Z" id="Path" fill="#FFC426"></path>
                <polygon id="Path" fill="#FFC426" points="37.7633867 0 32.9692682 29.2472043 4.99069997 29.2472043 4.99069997 32.9045335 36.0759865 32.9045335 40.8700136 3.65732918 43.786185 3.65732918 43.786185 0"></polygon>
            </g>
        </g>
    </g>
</svg>